{"accessors" : [{"bufferView" : 0, "byteOffset" : 0, "componentType" : 5123, "count" : 942, "type" : "SCALAR", "max" : [941], "min" : [0]}, {"bufferView" : 1, "byteOffset" : 0, "componentType" : 5126, "count" : 942, "type" : "VEC3", "max" : [168.4503631591797, 282.696044921875, 35.71840286254883], "min" : [-168.45071411132812, -2.2181213807925815E-06, -51.07836151123047], "name" : "POSITION"}, {"bufferView" : 1, "byteOffset" : 12, "componentType" : 5126, "count" : 942, "type" : "VEC3", "max" : [1.0000044107437134, 1.0000044107437134, 1.0000044107437134], "min" : [-1.0000044107437134, -1.0000044107437134, -1.0000044107437134], "name" : "NORMAL"}, {"bufferView" : 1, "byteOffset" : 24, "componentType" : 5126, "count" : 942, "type" : "VEC3", "max" : [1, 1, 1], "min" : [1, 1, 1], "name" : "COLOR_0"}, {"bufferView" : 1, "byteOffset" : 36, "componentType" : 5126, "count" : 942, "type" : "VEC2", "max" : [0.9867182970046997, 0.032213106751441956], "min" : [0.017639636993408203, -0.9852396249771118], "name" : "TEXCOORD_0"}], "asset" : {"generator" : "Aspose.3D 22.10", "version" : "2.0"}, "buffers" : [{"uri" : "data:application/octet-stream;base64,", "byteLength" : 43340}], "bufferViews" : [{"buffer" : 0, "byteOffset" : 0, "byteLength" : 1884, "target" : 34963}, {"buffer" : 0, "byteOffset" : 1888, "byteLength" : 41448, "byteStride" : 44, "target" : 34962}], "images" : [{"uri" : "U:/Dropbox/SyntyStudios/_UnrealMigration/SimplePeople/_Working/SimplePeople_BeachBabe_White.png"}], "materials" : [{"name" : "MAT_Character_BeachBabe", "pbrMetallicRoughness" : {"baseColorFactor" : [1, 1, 1, 1], "baseColorTexture" : {"index" : 0, "texCoord" : 0}, "metallicFactor" : 0, "roughnessFactor" : 0}, "emissiveFactor" : [0, 0, 0], "alphaMode" : "OPAQUE", "doubleSided" : false}], "meshes" : [{"primitives" : [{"attributes" : {"POSITION" : 1, "NORMAL" : 2, "COLOR_0" : 3, "TEXCOORD_0" : 4}, "indices" : 0, "material" : 0, "mode" : 4}], "name" : ""}], "nodes" : [{"mesh" : 0, "name" : "CH_BeachBabe"}, {"children" : [0], "name" : "Root"}], "samplers" : [{"magFilter" : 9729, "minFilter" : 9729, "wrapS" : 10497, "wrapT" : 10497}], "scene" : 0, "scenes" : [{"nodes" : [1]}], "textures" : [{"sampler" : 0, "source" : 0, "name" : "file56"}]}